<?xml version="1.0" standalone="no"?>
<!DOCTYPE svg PUBLIC "-//W3C//DTD SVG 20010904//EN"
 "http://www.w3.org/TR/2001/REC-SVG-20010904/DTD/svg10.dtd">
<svg version="1.0" xmlns="http://www.w3.org/2000/svg"
 width="408.000000pt" height="460.000000pt" viewBox="0 0 408.000000 460.000000"
 preserveAspectRatio="xMidYMid meet">

<g transform="translate(0.000000,460.000000) scale(0.100000,-0.100000)"
fill="#000000" stroke="none">
<path d="M0 2300 l0 -2300 2040 0 2040 0 0 2300 0 2300 -2040 0 -2040 0 0
-2300z m2148 2091 c97 -50 1680 -975 1701 -994 13 -12 34 -44 47 -72 l24 -50
0 -1005 0 -1005 -24 -50 c-13 -27 -34 -60 -47 -72 -21 -19 -1604 -944 -1701
-994 -50 -25 -149 -25 -203 0 -22 11 -411 235 -865 499 -883 513 -874 507
-900 600 -14 51 -14 1993 0 2044 26 93 17 87 900 600 454 264 843 488 865 499
54 25 153 25 203 0z"/>
<path d="M1945 4282 c-38 -22 -416 -240 -840 -486 -542 -314 -780 -457 -802
-483 l-33 -36 0 -1007 0 -1007 33 -36 c22 -26 268 -174 833 -501 441 -255 820
-474 842 -485 53 -27 83 -26 141 3 116 59 1639 950 1664 974 15 14 32 42 37
61 13 46 13 1921 0 1975 -5 22 -21 52 -37 67 -15 15 -401 245 -858 510 -638
371 -839 483 -870 486 -32 3 -54 -4 -110 -35z m1292 -883 c27 -13 56 -39 76
-67 l32 -47 3 -775 c2 -541 0 -786 -8 -813 -14 -49 -65 -106 -115 -128 -37
-17 -75 -19 -447 -19 -225 0 -408 -3 -408 -7 0 -3 28 -84 62 -179 l61 -173
120 -3 c99 -3 122 -6 130 -20 8 -12 7 -21 -2 -32 -12 -14 -86 -16 -697 -16
-656 0 -684 1 -693 19 -7 13 -7 23 2 34 10 13 35 17 132 19 l119 3 62 175 62
175 -423 5 -423 5 -44 31 c-23 17 -54 51 -68 75 l-25 44 0 775 c0 844 -2 820
58 878 69 67 -25 62 1241 62 1147 0 1150 0 1193 -21z"/>
<path d="M900 3333 c-19 -10 -45 -33 -57 -52 l-23 -34 0 -628 0 -629 1225 0
1225 0 0 633 c-1 477 -4 637 -13 654 -7 12 -25 32 -42 45 l-30 23 -1125 3
c-1056 2 -1127 1 -1160 -15z m1196 -168 c67 -41 125 -83 128 -92 8 -20 -19
-63 -40 -63 -8 0 -24 5 -36 11 -26 14 -37 3 -13 -15 22 -16 14 -46 -14 -46
-10 0 -26 -12 -36 -26 -16 -24 -16 -28 -1 -43 9 -8 80 -52 159 -96 124 -71
142 -84 145 -108 4 -35 -13 -57 -43 -57 -13 0 -85 43 -161 95 -77 52 -146 95
-155 95 -20 0 -33 -25 -34 -65 0 -27 -3 -30 -32 -29 -37 2 -43 -10 -14 -26 29
-15 36 -48 15 -71 -9 -10 -24 -19 -32 -19 -7 0 -55 25 -105 56 -164 101 -180
120 -137 159 17 15 24 16 46 7 37 -18 49 -14 29 8 -21 23 -14 50 13 50 26 0
127 163 127 205 0 26 4 30 28 30 32 -1 34 5 7 28 -11 9 -20 26 -20 36 0 21 25
51 42 51 6 0 66 -34 134 -75z m99 -214 c-2 -35 -15 -36 -15 -2 0 18 4 30 8 27
5 -3 8 -14 7 -25z m30 0 c-2 -35 -15 -36 -15 -2 0 18 4 30 8 27 5 -3 8 -14 7
-25z m-535 -41 c0 -5 -4 -10 -10 -10 -5 0 -10 5 -10 10 0 6 5 10 10 10 6 0 10
-4 10 -10z m30 0 c0 -5 -4 -10 -10 -10 -5 0 -10 5 -10 10 0 6 5 10 10 10 6 0
10 -4 10 -10z m-30 -30 c0 -5 -4 -10 -10 -10 -5 0 -10 5 -10 10 0 6 5 10 10
10 6 0 10 -4 10 -10z m35 0 c3 -5 -1 -10 -9 -10 -9 0 -16 5 -16 10 0 6 4 10 9
10 6 0 13 -4 16 -10z m-75 -110 c0 -5 -4 -10 -10 -10 -5 0 -10 -7 -10 -15 0
-8 -4 -15 -10 -15 -14 0 -13 18 3 35 14 17 27 19 27 5z m20 -26 c0 -8 -4 -12
-10 -9 -5 3 -10 -1 -10 -9 0 -9 -4 -16 -10 -16 -15 0 -12 11 7 32 20 22 23 22
23 2z m252 -149 c34 -4 70 -15 90 -29 l33 -22 33 22 c20 14 56 25 90 29 31 3
76 8 99 11 39 5 44 3 55 -20 6 -14 19 -26 29 -26 10 0 21 -9 24 -20 4 -12 15
-20 29 -20 20 0 29 -17 74 -130 29 -72 52 -144 52 -160 l0 -30 -124 0 -124 0
-12 -47 -12 -48 -23 29 c-21 26 -26 28 -54 18 -30 -11 -30 -10 -24 19 5 28 5
29 -36 29 -22 0 -41 -4 -41 -9 0 -19 -41 -23 -59 -7 -15 14 -51 16 -239 16
l-222 0 0 29 c0 46 111 291 132 291 9 0 20 9 23 20 3 11 14 20 24 20 10 0 23
12 29 26 11 23 16 25 55 20 23 -3 68 -8 99 -11z"/>
<path d="M1952 3208 c-7 -7 -12 -17 -12 -22 0 -6 53 -44 117 -85 89 -56 120
-71 132 -64 9 6 16 16 16 23 0 11 -219 159 -235 160 -4 0 -11 -5 -18 -12z"/>
<path d="M1920 3106 c0 -7 173 -114 195 -121 11 -4 -25 23 -80 59 -92 61 -115
73 -115 62z"/>
<path d="M1872 2973 l-61 -98 76 -48 c42 -27 79 -45 83 -40 16 19 110 174 110
182 0 5 -24 24 -52 42 -29 17 -63 38 -74 46 -21 13 -24 9 -82 -84z"/>
<path d="M1774 2861 c8 -13 196 -125 201 -120 4 5 -190 129 -201 129 -3 0 -3
-4 0 -9z"/>
<path d="M2063 2854 c-7 -19 -12 -14 127 -109 63 -44 118 -83 121 -88 4 -5 17
-7 30 -5 39 5 32 47 -11 71 -19 10 -86 48 -148 83 -91 51 -114 61 -119 48z"/>
<path d="M1700 2804 c-11 -12 -11 -18 1 -30 22 -21 222 -144 235 -144 13 0 27
28 19 40 -5 9 -228 150 -237 150 -3 0 -11 -7 -18 -16z"/>
<path d="M1781 2567 c-33 -88 -52 -139 -69 -182 l-20 -51 103 1 c99 0 105 -1
174 -37 l71 -37 0 123 c0 108 -2 126 -20 149 -21 27 -73 42 -173 51 -53 4 -59
3 -66 -17z"/>
<path d="M2214 2580 c-152 -16 -154 -19 -154 -182 0 -70 2 -128 3 -128 2 0 33
15 68 33 60 30 71 32 165 32 l101 0 -24 65 c-14 36 -35 92 -47 124 -13 33 -27
61 -32 62 -5 0 -41 -2 -80 -6z"/>
<path d="M1716 2488 c-41 -95 -79 -198 -75 -203 3 -2 37 -1 75 3 39 4 106 5
150 1 43 -4 80 -5 82 -4 2 2 -18 10 -44 19 -58 20 -136 21 -197 2 -26 -8 -47
-11 -47 -7 0 3 14 42 31 86 47 121 59 155 53 155 -3 0 -15 -24 -28 -52z"/>
<path d="M2365 2478 c13 -35 33 -87 44 -117 12 -29 19 -56 17 -59 -3 -2 -25 1
-50 7 -54 13 -116 14 -116 2 0 -5 21 -12 48 -15 26 -3 70 -8 99 -12 l52 -6
-52 131 c-29 72 -55 131 -59 131 -4 0 4 -28 17 -62z"/>
<path d="M1666 2447 c-13 -29 -38 -83 -55 -121 -17 -38 -29 -72 -26 -74 9 -9
21 11 50 83 15 39 36 91 46 118 25 64 14 60 -15 -6z"/>
<path d="M2440 2378 c26 -67 53 -124 59 -126 6 -2 11 -2 11 0 0 17 -98 242
-107 245 -6 2 10 -51 37 -119z"/>
<path d="M2192 2308 c-28 -7 -31 -11 -22 -28 5 -10 10 -39 10 -63 0 -41 2 -45
21 -40 14 4 27 0 35 -12 12 -16 13 -15 20 9 8 33 -3 108 -19 128 -9 12 -20 13
-45 6z"/>
<path d="M1645 2260 c-17 -4 45 -8 145 -8 101 0 164 3 150 8 -32 10 -255 10
-295 0z"/>
<path d="M2270 2260 c0 -6 40 -10 103 -9 68 1 92 4 72 9 -45 12 -175 12 -175
0z"/>
<path d="M2138 2253 c7 -3 16 -2 19 1 4 3 -2 6 -13 5 -11 0 -14 -3 -6 -6z"/>
<path d="M820 1818 c0 -75 4 -99 20 -125 41 -68 -41 -64 1221 -61 l1141 3 34
37 c34 38 34 38 34 138 l0 100 -1225 0 -1225 0 0 -92z m1266 37 c39 -16 67
-67 57 -106 -15 -62 -85 -94 -141 -65 -38 20 -52 44 -52 88 1 39 16 62 56 83
36 18 37 18 80 0z"/>
<path d="M2030 1785 c-15 -18 -6 -45 13 -45 8 0 20 7 27 15 10 12 10 18 0 30
-16 19 -24 19 -40 0z"/>
<path d="M1751 1378 c-33 -95 -61 -176 -61 -180 0 -5 162 -8 361 -8 339 0 360
1 354 18 -3 9 -31 89 -63 177 l-57 160 -236 3 -236 2 -62 -172z"/>
</g>
</svg>
